<svg xmlns="http://www.w3.org/2000/svg" width="512" height="512" viewBox="0 0 512 512">
  <defs>
    <linearGradient id="bg" x1="48" y1="32" x2="464" y2="480" gradientUnits="userSpaceOnUse">
      <stop stop-color="#9B87FF"/>
      <stop offset="1" stop-color="#6544F5"/>
    </linearGradient>
  </defs>
  <rect width="512" height="512" rx="128" fill="#0B0F17"/>
  <rect x="42" y="42" width="428" height="428" rx="108" fill="url(#bg)"/>
  <path d="M348 166c-24-23-55-35-91-35-62 0-105 33-105 83 0 46 34 69 91 82 39 9 54 18 54 35 0 18-17 29-45 29-35 0-66-14-91-40l-40 49c32 36 78 55 130 55 66 0 111-35 111-89 0-45-30-69-91-84-40-10-55-18-55-34 0-16 16-26 41-26 27 0 52 10 73 29l38-54Z" fill="white"/>
</svg>
